<svg version="1.1" xmlns="http://www.w3.org/2000/svg" xmlns:xlink="http://www.w3.org/1999/xlink" width="800px" height="800px" viewBox="0,0,256,256"><g fill="none" fill-rule="nonzero" stroke="none" stroke-width="none" stroke-linecap="none" stroke-linejoin="none" stroke-miterlimit="10" stroke-dasharray="" stroke-dashoffset="0" font-family="none" font-weight="none" font-size="none" text-anchor="none" style="mix-blend-mode: normal"><g><g fill="#ebf9f8" stroke="none" stroke-width="1" stroke-linecap="butt" stroke-linejoin="miter"><path d="M0,256v-256h256v256z" id="bgRectangle"></path></g><g fill="none" stroke="#37c3bf" stroke-width="2" stroke-linecap="round" stroke-linejoin="round"><g transform="translate(-0.0102,0.00368) scale(10.66667,10.66667)"><path d="M19,13v7c0,0.55228 -0.44772,1 -1,1h-12c-0.55228,0 -1,-0.44772 -1,-1v-7" id="secondary"></path><path d="M12,3h6.25c0.462,-0.01708 0.87549,0.28476 1,0.73l1.58,5.55c0.12619,0.47944 0.18343,0.97441 0.17,1.47v0c0,1.24264 -1.00736,2.25 -2.25,2.25v0c-1.24264,0 -2.25,-1.00736 -2.25,-2.25c0,1.24264 -1.00736,2.25 -2.25,2.25v0c-1.24264,0 -2.25,-1.00736 -2.25,-2.25" id="primary"></path><path d="M12,3h-6.25c-0.462,-0.01708 -0.87549,0.28476 -1,0.73l-1.54,5.55c-0.13969,0.47749 -0.21041,0.9725 -0.21,1.47v0c0,1.24264 1.00736,2.25 2.25,2.25v0c1.24264,0 2.25,-1.00736 2.25,-2.25c0,1.24264 1.00736,2.25 2.25,2.25v0c1.24264,0 2.25,-1.00736 2.25,-2.25" id="primary-2"></path></g></g></g></g></svg>