<svg version="1.1" xmlns="http://www.w3.org/2000/svg" xmlns:xlink="http://www.w3.org/1999/xlink" width="800px" height="800px" viewBox="0,0,256,256"><g fill="#ffffff" fill-rule="nonzero" stroke="none" stroke-width="1" stroke-linecap="butt" stroke-linejoin="miter" stroke-miterlimit="10" stroke-dasharray="" stroke-dashoffset="0" font-family="none" font-weight="none" font-size="none" text-anchor="none" style="mix-blend-mode: normal"><path d="M0,256v-256h256v256z" id="bgRectangle"></path></g><g fill="none" fill-rule="nonzero" stroke="none" stroke-width="none" stroke-linecap="butt" stroke-linejoin="none" stroke-miterlimit="10" stroke-dasharray="" stroke-dashoffset="0" font-family="none" font-weight="none" font-size="none" text-anchor="none" style="mix-blend-mode: normal"><path transform="translate(0,0) scale(0.5,0.5)" d="M512,426.216c0,3.986 -0.563,8.025 -1.695,11.989v0.008c-5.356,18.596 -22.358,31.399 -41.708,31.399h-425.197c-18.955,0 -35.715,-12.295 -41.399,-30.391c-1.343,-4.262 -2.001,-8.66 -2.001,-13.004c-0.011,-13.916 6.716,-27.331 18.582,-35.609l-0.004,0.014l207.708,-144.901v-20.94c0.004,-16.76 11.03,-31.511 27.095,-36.267l2.359,-0.702l2.404,-0.03h0.105c0.197,-0.007 0.575,-0.03 1.097,-0.082c1.034,-0.082 2.621,-0.269 4.449,-0.62c3.674,-0.686 8.22,-2.179 11.274,-4.217c7.838,-5.091 14.37,-12.079 18.917,-20.269c4.546,-8.204 7.122,-17.558 7.126,-27.651c-0.004,-15.827 -6.36,-29.996 -16.722,-40.38c-10.392,-10.37 -24.561,-16.73 -40.376,-16.73c-11.888,0 -22.784,3.584 -31.914,9.742c-9.122,6.16 -16.39,14.916 -20.712,25.144c-3.808,9.01 -14.211,13.221 -23.225,9.413c-9.01,-3.814 -13.232,-14.213 -9.421,-23.224c7.044,-16.633 18.749,-30.728 33.508,-40.708c14.752,-9.982 32.657,-15.812 51.765,-15.812c25.493,0 48.747,10.385 65.44,27.099c16.714,16.7 27.114,39.955 27.106,65.456c0.004,16.207 -4.207,31.571 -11.582,44.859c-7.38,13.289 -17.902,24.531 -30.597,32.787c-8.655,5.584 -17.274,7.973 -23.833,9.272c-3.202,0.627 -5.924,0.955 -7.98,1.135c-0.503,0.448 -0.84,1.082 -0.836,1.784v20.395l229.928,144.283c6.428,4.031 11.541,9.57 15.002,15.908c3.467,6.345 5.337,13.497 5.337,20.85z" id="strokeMainSVG" fill="#ebf9f8" stroke="#ebf9f8" stroke-width="100" stroke-linejoin="round"></path><g transform="translate(0,0) scale(0.5,0.5)" fill="#33cccc" stroke="none" stroke-width="1" stroke-linejoin="miter"><g><path d="M506.663,405.366c-3.461,-6.338 -8.574,-11.877 -15.002,-15.908l-229.928,-144.283v-20.395c-0.004,-0.702 0.333,-1.336 0.836,-1.784c2.056,-0.18 4.778,-0.508 7.98,-1.135c6.559,-1.299 15.178,-3.688 23.833,-9.272c12.695,-8.256 23.217,-19.498 30.597,-32.787c7.375,-13.288 11.586,-28.652 11.582,-44.859c0.008,-25.501 -10.392,-48.756 -27.106,-65.456c-16.693,-16.714 -39.947,-27.099 -65.44,-27.099c-19.108,0 -37.013,5.83 -51.765,15.812c-14.759,9.98 -26.464,24.075 -33.508,40.708c-3.811,9.011 0.411,19.41 9.421,23.224c9.014,3.808 19.417,-0.403 23.225,-9.413c4.322,-10.228 11.59,-18.984 20.712,-25.144c9.13,-6.158 20.026,-9.742 31.914,-9.742c15.815,0 29.984,6.36 40.376,16.73c10.362,10.384 16.718,24.553 16.722,40.38c-0.004,10.093 -2.58,19.447 -7.126,27.651c-4.547,8.19 -11.079,15.178 -18.917,20.269c-3.054,2.038 -7.6,3.531 -11.274,4.217c-1.828,0.351 -3.415,0.538 -4.449,0.62c-0.522,0.052 -0.9,0.075 -1.097,0.082h-0.105l-2.404,0.03l-2.359,0.702c-16.065,4.756 -27.091,19.507 -27.095,36.267v20.94l-207.708,144.901l0.004,-0.014c-11.866,8.278 -18.593,21.693 -18.582,35.609c0,4.344 0.658,8.742 2.001,13.004c5.684,18.096 22.444,30.391 41.399,30.391h425.197c19.35,0 36.352,-12.803 41.708,-31.399v-0.008c1.132,-3.964 1.695,-8.003 1.695,-11.989c0,-7.353 -1.87,-14.505 -5.337,-20.85zM476.242,428.426v-0.008c-0.978,3.397 -4.102,5.756 -7.644,5.756h-425.198c-3.475,0 -6.548,-2.27 -7.585,-5.569c-0.258,-0.806 -0.369,-1.605 -0.369,-2.389c0.007,-2.553 1.224,-5.017 3.4,-6.525h0.008l205.676,-143.467l228.292,143.251c1.206,0.762 2.102,1.747 2.748,2.912c0.642,1.164 0.989,2.486 0.989,3.83c0,0.724 -0.105,1.448 -0.317,2.209z"></path></g></g></g></svg>