<svg version="1.1" viewBox="0.0 0.0 960.0 720.0" fill="none" stroke="none" stroke-linecap="square" stroke-miterlimit="10" xmlns:xlink="http://www.w3.org/1999/xlink" xmlns="http://www.w3.org/2000/svg"><clipPath id="p.0"><path d="m0 0l960.0 0l0 720.0l-960.0 0l0 -720.0z" clip-rule="nonzero"/></clipPath><g clip-path="url(#p.0)"><path fill="#ebf9f8" d="m0 0l960.0 0l0 720.0l-960.0 0z" fill-rule="evenodd"/><path fill="#ffffff" d="m960.0 0l0 721.6693l-146.67719 0l0 -721.6693z" fill-rule="evenodd"/><path stroke="#ffffff" stroke-width="1.0" stroke-linejoin="round" stroke-linecap="butt" d="m960.0 0l0 721.6693l-146.67719 0l0 -721.6693z" fill-rule="evenodd"/><path fill="#ebf9f8" d="m857.86145 213.34247l57.265625 0l0 42.453125l-9.6875 0l0 -30.890625l-12.6875 0l0 28.75l-9.65625 0l0 -28.75l-15.578125 0l0 31.984375l-9.65625 0l0 -43.546875zm0 75.42969l57.265625 0l0 17.296875l-39.0625 10.390625l39.0625 10.28125l0 17.34375l-57.265625 0l0 -10.75l45.078125 0l-45.078125 -11.359375l0 -11.140625l45.078125 -11.328125l-45.078125 0l0 -10.734375zm0 118.4375l0 -12.578125l13.015625 -5.0l0 -22.890625l-13.015625 -4.734375l0 -12.265625l57.265625 22.3125l0 12.21875l-57.265625 22.9375zm22.65625 -21.296875l21.25 -7.890625l-21.25 -7.734375l0 15.625zm-22.65625 27.460938l57.265625 0l0 24.34375q0 9.171875 -1.546875 13.328125q-1.53125 4.171875 -5.484375 6.671875q-3.9375 2.5 -9.015625 2.5q-6.453125 0 -10.65625 -3.796875q-4.1875 -3.78125 -5.28125 -11.328125q-2.1875 3.75 -4.8125 6.1875q-2.609375 2.453125 -9.296875 6.59375l-11.171875 6.984375l0 -13.828125l12.46875 -8.359375q6.671875 -4.453125 8.40625 -6.09375q1.75 -1.640625 2.390625 -3.484375q0.640625 -1.828125 0.640625 -5.8125l0 -2.34375l-23.90625 0l0 -11.5625zm33.046875 11.5625l0 8.5625q0 8.3125 0.703125 10.375q0.703125 2.078125 2.421875 3.25q1.71875 1.171875 4.296875 1.171875q2.890625 0 4.671875 -1.546875q1.78125 -1.53125 2.25 -4.34375q0.1875 -1.40625 0.1875 -8.4375l0 -9.03125l-14.53125 0zm-33.046875 59.070312l47.578125 0l0 -17.0l9.6875 0l0 45.515625l-9.6875 0l0 -16.953125l-47.578125 0l0 -11.5625z" fill-rule="nonzero"/></g></svg>